<svg xmlns="http://www.w3.org/2000/svg" viewBox="0 0 1200 420" fill="none" role="img" aria-labelledby="title desc">
  <title id="title">Nalix Transport and Runtime Flow</title>
  <desc id="desc">A layered flow diagram showing client, transport, runtime, and application layers.</desc>

  <defs>
    <linearGradient id="bg" x1="0" y1="0" x2="1" y2="1">
      <stop offset="0" stop-color="#060b17"/>
      <stop offset="1" stop-color="#111a2f"/>
    </linearGradient>
    <linearGradient id="cyan" x1="0" y1="0" x2="1" y2="0">
      <stop offset="0" stop-color="#00D3FF"/>
      <stop offset="1" stop-color="#68F4FF"/>
    </linearGradient>
    <linearGradient id="card" x1="0" y1="0" x2="0" y2="1">
      <stop offset="0" stop-color="#1B2A4A" stop-opacity="0.7"/>
      <stop offset="1" stop-color="#10192D" stop-opacity="0.92"/>
    </linearGradient>
    <filter id="soft" x="-20%" y="-20%" width="140%" height="140%">
      <feDropShadow dx="0" dy="8" stdDeviation="10" flood-color="#000" flood-opacity="0.35"/>
    </filter>
    <pattern id="grid" width="28" height="28" patternUnits="userSpaceOnUse">
      <path d="M 28 0 L 0 0 0 28" stroke="#68F4FF" stroke-opacity="0.08" stroke-width="1"/>
    </pattern>
  </defs>

  <rect width="1200" height="420" rx="16" fill="url(#bg)"/>
  <rect width="1200" height="420" rx="16" fill="url(#grid)"/>
  <rect x="0" y="0" width="1200" height="3" fill="url(#cyan)"/>

  <g opacity="0.35">
    <circle cx="140" cy="72" r="120" fill="#00D3FF" fill-opacity="0.09"/>
    <circle cx="1080" cy="338" r="170" fill="#00D3FF" fill-opacity="0.08"/>
  </g>

  <g filter="url(#soft)">
    <rect x="70" y="98" width="240" height="90" rx="12" fill="url(#card)" stroke="#62EFFF" stroke-opacity="0.35"/>
    <rect x="370" y="98" width="240" height="90" rx="12" fill="url(#card)" stroke="#62EFFF" stroke-opacity="0.35"/>
    <rect x="670" y="98" width="240" height="90" rx="12" fill="url(#card)" stroke="#62EFFF" stroke-opacity="0.35"/>
    <rect x="970" y="98" width="160" height="90" rx="12" fill="url(#card)" stroke="#62EFFF" stroke-opacity="0.35"/>

    <rect x="70" y="248" width="1060" height="100" rx="12" fill="url(#card)" stroke="#62EFFF" stroke-opacity="0.4"/>
  </g>

  <g font-family="Segoe UI, Arial, sans-serif" text-anchor="middle">
    <text x="600" y="46" fill="#DDF9FF" font-size="24" font-weight="700" letter-spacing="1.5">NALIX REQUEST FLOW</text>
    <text x="600" y="70" fill="#9BC8D5" font-size="13">From client session to handler execution with transport and runtime safeguards</text>

    <text x="190" y="132" fill="#E9FCFF" font-size="15" font-weight="700">Nalix.SDK</text>
    <text x="190" y="154" fill="#9ED0DC" font-size="12">TcpSession / UdpSession</text>

    <text x="490" y="132" fill="#E9FCFF" font-size="15" font-weight="700">Nalix.Network</text>
    <text x="490" y="154" fill="#9ED0DC" font-size="12">TCP/UDP Transport</text>

    <text x="790" y="132" fill="#E9FCFF" font-size="15" font-weight="700">Nalix.Runtime</text>
    <text x="790" y="154" fill="#9ED0DC" font-size="12">Dispatch + Middleware</text>

    <text x="1050" y="132" fill="#E9FCFF" font-size="15" font-weight="700">Handlers</text>
    <text x="1050" y="154" fill="#9ED0DC" font-size="12">Application Logic</text>

    <text x="600" y="284" fill="#E9FCFF" font-size="14" font-weight="700">Shared Foundation: Packet Registry, Serialization, Buffer Pools, Security, Rate Limiting</text>
    <text x="600" y="310" fill="#9ED0DC" font-size="12">Nalix.Framework + Nalix.Common + Nalix.Network.Pipeline</text>
  </g>

  <g stroke="url(#cyan)" stroke-width="3" stroke-linecap="round" fill="none">
    <path d="M 311 143 H 361"/>
    <path d="M 611 143 H 661"/>
    <path d="M 911 143 H 961"/>
  </g>

  <g fill="#68F4FF">
    <polygon points="361,136 373,143 361,150"/>
    <polygon points="661,136 673,143 661,150"/>
    <polygon points="961,136 973,143 961,150"/>
  </g>

  <g stroke="#68F4FF" stroke-width="2" stroke-opacity="0.5" fill="none">
    <path d="M 190 189 V 237"/>
    <path d="M 490 189 V 237"/>
    <path d="M 790 189 V 237"/>
    <path d="M 1050 189 V 237"/>
  </g>

  <g fill="#68F4FF" fill-opacity="0.7">
    <circle cx="190" cy="237" r="4"/>
    <circle cx="490" cy="237" r="4"/>
    <circle cx="790" cy="237" r="4"/>
    <circle cx="1050" cy="237" r="4"/>
  </g>
</svg>
